<svg id="Ebene_1" data-name="Ebene 1" xmlns="http://www.w3.org/2000/svg" width="268" height="117.7" viewBox="0 0 268 117.7"><defs><style>.cls-1{fill:#fe0405;}.cls-1,.cls-2,.cls-3,.cls-4,.cls-5,.cls-6{fill-rule:evenodd;}.cls-2{fill:#bcd91c;}.cls-3{fill:#c62d01;}.cls-4{fill:#f35901;}.cls-5{fill:#737301;}.cls-6{fill:#e28601;}</style></defs><title>logo</title><path class="cls-1" d="M244.93.9c4.8-.63,12-2.76,14,3.08,1.87,5.46,2,13.82,1.65,19.45s-.34,11.73-.64,16.95c-.2,3.4-.89,7.52-1.07,10.94-.06,1.21.56,5.13-.44,6.4-.64.81-4.51.22-5.29-.56s-.9-3.66-1.21-4.56A44.67,44.67,0,0,1,250.6,47c-.76-3.42-2.3-6.7-3-10.13-1.42-6.52-3.33-13.18-4.3-20.2-.43-3.15-.8-6.33-1-9-.23-3.63.56-3.73,2.64-6.76C248.8.39,244.28,1.84,244.93.9Zm4.27,8.51c.19,1.74-1.74.19,0,0C249.23,9.65,249,9.43,249.2,9.41Zm15.13,57.76c.25.63,1.11,2.5,1.75,2.43a25,25,0,0,0,.52,8.35c.5,2.1,1.81,5.64,1.26,8.27-.13.6-1.38,3.72-2.52,4.38-2.32,1.34-8.81,1-10.42.37-4-1.49-4-3.19-4.52-7.36s-2.17-9-.78-13.11c.59-1.75.76-1.5,1.75-2.3q-.21-1.76,1.34-1a17.12,17.12,0,0,0,2.61-.1c3.61-.29,5.78-.61,9,.09C264.8,68.35,263.57,67,264.33,67.17Z"/><path class="cls-2" d="M17.58,40.12c.92.12.86.3,1.56.58a3.36,3.36,0,0,1-1.65,2,8.18,8.18,0,0,1,.67,1.95.68.68,0,0,0-.36,1,1.5,1.5,0,0,1,1.47,1.52c.46.69.84,1.5,1.14,1.93.66.93,1.31,1,1.71,2.06l-2.25-.13a3.39,3.39,0,0,0,3.35,3.38c.1-.48,1.44-2.77.09-2.62.37-1.68,1.2-1.1,1.57-2.78-.58.06.31-6.56.73-7.17S27.4,42.2,28,41c.38-.78-.65-1.59-.69-2.41a31.45,31.45,0,0,1,.67-3.7c.15-1.13.36-2.29.57-3.41.36-1.9.61-4.18,1.88-5.74,2.34-2.88,10.84-3.55,13.68-3,.76.15,3,1.07,3.18,2.22s-.78,4-.92,5c-.7,5-3.61,10.42-4.7,15.44-.17.8-.74,2.14-1.12,3.48-.47,1.66-1.58,5.18-2.17,7.7-.26,1.1-.78,2-1.1,3.67-.27,1.41-1.47,5-.79,6.62.76-.08,4.53,8.61,4.94,9.56.82,1.85,1.8,3.6,2.62,5.32.49,1,1.29,2,1.85,3.29.39.94.86,2.36,1.26,3.1.06.1,1,1,1,1,.9,1.92,1,2.92,2,4.46.36.55,1.22,2,1.36,2.28a31.54,31.54,0,0,0,2.61,4.69c1.51,2.43,3.4,5.63,3.57,8.55.08,1.3.08,2.12-.93,3-.69.63-4.11,1.35-4.21.41a10.43,10.43,0,0,1-3.46.84c-.36,0-3.28-.94-3.15.24a6.34,6.34,0,0,1-7-2c-1.3-1.83-1.43-3.93-2-5.94A35.77,35.77,0,0,0,32.51,96a29.71,29.71,0,0,1-2.24-3.5c-.69-1.61-.46-2.85-1-4.19V86.68A5.58,5.58,0,0,1,27.22,86c-.89-.5-3.05-1.88-4.13-1.31-1.57.84-.21,1.83,0,2.57a2.19,2.19,0,0,1,.78,2.58l-.05,3c0,.55,0,2.61.83,2.53.36,1.19.15,3.44.51,4.8.51,1.89,1.09,3.25-1,4.59,1.71,2.06,2.49,3.69,2.27,7.23-.23,3.69-1.7,3.51-5.14,4.28-2.1.47-5.08,1.89-8.08,1.24a17.92,17.92,0,0,1-3.93-1.82c-.67-.86-.59-3.34-.72-4.5-.4-3.57.07-7.05-.15-10.58s-.73-6.84-1.09-10.25C6.52,83.49,5.12,76.72,4.6,69.83,4.17,64.11,3.55,59.12,3,53.89,2.26,47.1-.16,39.24,0,33,.07,31-.41,29.4,1.49,28c1.36-1,3.37-.9,4.76-1.24C8.58,26.2,11,25.48,13.4,26A6,6,0,0,1,16.16,27c.57.49,1.29,2.29,1.75,2.24a44.92,44.92,0,0,0,0,6.73c0,.46.35,1.33.36,1.64,0,1.31-1.54.58-.67,2.5C18.5,40.24,17.41,39.77,17.58,40.12Zm-4.27,2,.08.74q-.88.27-.86-1l.78.29C13.33,42.32,13,42,13.3,42.07ZM13,46.21l.08.74c-.55.06-1.37-.61-1.63-1.32.92.13.85.3,1.56.58C13,46.46,12.3,45.94,13,46.21Zm5.31,4.29c-.42,1.9-2,1.28-1.56-.58.92.13.85.3,1.56.58C18.23,50.88,17.61,50.22,18.31,50.5Zm15.43-2.39a4,4,0,0,0-.25,1.15q-.88.27-.86-1l1.11-.12C33.6,48.87,33.37,48.14,33.74,48.11Zm-21.3,3.4c.8-.09-.1-.36.7-.45l.08.74c-.76-.14-.31.09-.78-.29C12.57,51.49,12.91,51.88,12.44,51.5Zm16.64,2a4,4,0,0,0-.25,1.15c-.94.1-.64-.89-.53-1.44l.78.29C28.94,54.22,28.83,53.36,29.08,53.46Zm-3.61,1.13c-.76-.14-.31.09-.78-.29C25.45,54.44,25,54.22,25.47,54.59ZM17.54,57.3q-.91-.08-.62,1.19a4.71,4.71,0,0,1-1.76.08c-.58.09-1.64-.41-1.68-.83.59,0,4.08-.7,4.06-.43C17.42,57.32,17.57,56.78,17.54,57.3ZM28.08,58c-1.43.15-.22-.35-1.15-.25,0-1.55,0-1.5,1.69-1.67A3.35,3.35,0,0,1,28.08,58C27.83,58.07,28.4,57.24,28.08,58ZM8.43,59.4a.81.81,0,0,1-.82-.66q1.07-.49.82.66C8.31,59.41,8.41,59.15,8.43,59.4Zm16.69-1c-.17,1,0,.85-1,1.23q-.73-1.6,1-1.23C25,59.4,24.76,58.4,25.13,58.36ZM17.9,60.63c.09.8-.38,0-.29.78-.58.27-.62-.31-1.15-.25-.41-.37.72-.26.66-.82l.78.29C17.91,60.75,17.64,60.53,17.9,60.63Zm2.74,1.2c1.91.31,3.35,1.45,5.37,1.29a2.07,2.07,0,0,1-2.84,1.42c-.46-.21-.58-1.41-1.3-1.73-1.27-.55-2.28-.32-2.45-2,1,.17.85,0,1.23,1C22.58,62.14,20.27,60.84,20.64,61.83Zm13.21-2.16c.19,1.74-1.74.19,0,0C33.88,59.92,33.61,59.7,33.86,59.67ZM13.67,62.95c.19,1.74-1.74.19,0,0C13.69,63.19,13.42,63,13.67,62.95Zm3.4.38c.19,1.74-1.74.19,0,0C17.09,63.58,16.82,63.36,17.07,63.33Zm-.34,3.77.7-.45c.16,1.47,2.62-2.9,4-1.75,1.62,1.38-4,3.18-4.91,3.35l.25-1.15C17,67,16.64,67.48,16.72,67.1Zm14.24-3q-.13.57.41.33c-3.26,4.88-5.85.25-.41-.33C31,64.21,30.35,64.15,31,64.09ZM9.38,68.26c.57,0,1.85-.19,1.93.54l-2.18.61.25-1.15C10.35,68.2,9.29,68.64,9.38,68.26Zm7.74,2.53a11.26,11.26,0,0,1,2.58-.28c-.26,1.77-.67,1.3-2.47,1.38l-.12-1.11C17.24,70.78,17.16,71.16,17.12,70.79Zm9.35.12c.13,1.18-1.72.18-2.22.24a3.62,3.62,0,0,0,.21-1.52l2,1.28C26.48,71,25.8,70.49,26.47,70.92Zm2.78,1.57c0-2,1.05-1.61,2.8-1.79-.28,1.93-.89,2.29-2.8,1.79C29.24,71.61,29.91,72.66,29.25,72.49Zm-7.09,0q-.13.57.41.33c.05.48-1.18,1.62-1.69,1.67-.09-1.46-.17-1.85,1.28-2C22.17,72.62,21.79,72.54,22.15,72.5Zm-4.31,1.58c.46,0,.39-.16.7-.45l.08.74c-.76-.14-.31.09-.78-.29C18,74.07,18.31,74.45,17.84,74.08ZM29,73.63c-.16.74-.34,1.53-.95,1.6q-.5-1.8.95-1.6C28.91,74,28.75,73.66,29,73.63Zm-8.37,2a11.48,11.48,0,0,1,3.73,0c-.45,2.06-5.73,2.5-3.73,0C22,75.48,20.25,76.11,20.62,75.65Zm-3.24,1.09a1.84,1.84,0,0,1-.62,1.19l-.49-1.07,1.11-.12C17.24,77.5,17,76.78,17.38,76.74Zm-4.93,2.77a1,1,0,0,1-.62,1.19q-.29-1.27.62-1.19C12.75,80.17,12.32,79.52,12.45,79.51Zm13.9.76q-.57-.13-.33.41a2.66,2.66,0,0,0-1.52-.21c-.06-.54,1-1.44,1.69-1.67l.16,1.48C26.22,80.28,26.29,79.77,26.35,80.27Zm5-2c.11,1.07.3-.72.53,1.44-1.18-.11-1.59-.17-2-1.28l1.48-.16C31.37,78.36,30.87,78.29,31.36,78.24Zm-13.5,2.94c-1.07.11.72.3-1.44.53-.07-.69.95-.92,1.44-.53C17.73,81.19,17.39,80.8,17.85,81.17ZM34.47,79.4q.27.88-1,.86-.51-1.25,1-.86C34.48,79.52,34.1,79.44,34.47,79.4ZM22.89,82.88q-.13.57.41.33c-.47,3.31-4.19.07-.41-.33C22.9,83,22.4,82.93,22.89,82.88Zm6.43.81q-.24-.53.33-.41l.49,1.07L29,84.46c.14-.76-.09-.31.29-.78C29.31,83.56,28.95,84.15,29.32,83.68Zm-9.15,1.72c-.08-.8-3.89,2.28-3.86,2.28-.29-2.75,1.46-2.49,3.86-2.28C20.19,85.53,18.53,85.27,20.17,85.41Zm21.65-.07-.7.45c-.15-.32-.79-.73-.53-1.44q.57.13.33-.41,1.85-.2.9,1.4C41.59,85.48,41.91,85,41.83,85.33Zm-10,1.06a.81.81,0,0,1,.82.66q-1.07.49-.82-.66C32,86.39,31.88,86.65,31.86,86.4Zm6.76.4a.81.81,0,0,1-.82-.66q1.07-.49.82.66C38.5,86.81,38.59,86.55,38.62,86.8ZM19,92.25a.66.66,0,0,1,.82.66q-1.07.49-.82-.66C19.16,92.24,19.06,92.5,19,92.25Zm-.91,2,.12,1.11c-.05.11-1.51-1-.12-1.11C18.17,94.58,18,94.23,18.13,94.21ZM40,92.63q-.3-1.09,1.44-.53.17,1.81-1.73,1.3c.14-.76-.09-.31.29-.78C40,92.5,39.61,93.09,40,92.63ZM20.91,95.78,21,96.89c-.05.11-1.51-1-.12-1.11C20.95,96.15,20.78,95.8,20.91,95.78Zm22-.11c-.8.09.1.36-.7.45l-.08-.74c.76.14.31-.09.78.29C42.81,95.69,42.46,95.3,42.93,95.67Zm-24.81,9a.81.81,0,0,1-.82-.66q1.07-.49.82.66C18,104.68,18.1,104.43,18.12,104.67Zm24.49-1.5c.8-.09-.1-.36.7-.45l.08.74c-.76-.14-.31.09-.78-.29C42.73,103.16,43.08,103.55,42.61,103.18Z"/><path class="cls-3" d="M207,20.26c-.14,1.58-.94,1.79-1.16,3.11,2.12-.23.1,1.23.2,1.85.48-.05,1.42,1.57,1.73,2.18.75,1.48,2.14,2.53,2.27,3.74a4.41,4.41,0,0,1-1.89-.17c-.3,1.75,1.25,3.37,3.35,3.38a16.47,16.47,0,0,1,.28-2.26c0-.13-.7-.64-.63-1.06s1.48-.79,1.73-1.3c.36-.75.15-3.33.38-4.36a16.07,16.07,0,0,1,.54-2.27q-.54-1.71,1-1.42,1.37.24,1.54-1.29c-.07.27-1.3-1-1.27-1.36s.38-.66.42-1.12a11.61,11.61,0,0,1,.74-2c.4-2.16.6-5,1.14-6.84s1.15-4.54,2.81-5.16A28,28,0,0,1,231.8,2.83c3.51.69,4,2.34,3.09,5.49-.35,1.22-1,2.95-1.23,4.24-.68,3.66-2,7-3.68,11.71-2.42,6.83-7.23,17.66-4.2,24.61,1.42,3.25,3.48,6.61,5.17,9.91.84,1.64,1.69,2.8,2.32,4.23.42,1,.51,2.42,1.13,3.61.33.63,1.86,1.74,2.12,2.39.55,1.37.64,2.44,1.11,3.43.25.54,1.16,1.55,1.32,1.91,1.08,2.39,2.08,4,3.5,6.54s2.7,4.46,3.2,7.19c.46,2.54.58,3.81-2,4.49-1.23.32-2.91-.34-3.88,0,.11,1-1.14-.16-1,.86-1.8-.16-2.61-.64-4.51-.27-1.21.24-3.37,1.16-5.21.18-2.12-1.12-2.06-2.51-2.73-4.56-.8-2.44-2.18-4.71-3-7.15a43.23,43.23,0,0,0-3.64-7.83c-.83-1.43-2.94-4-2-6.88-1.6.17-2.74-1.54-4.19-1.88-1.2-.28-1.74-1.12-2.56.45-.93,1.76.11.69.35,1.83,1.1,5.42,1.52,10.39,2.6,16.44-1,.11-.68.33-1.4.9,1.67,2.31,2.93,4.73,2.38,8-.5,2.93-2.72,3-5.26,3.55-3.26.66-6.2,2-9.53.65-2.07-.84-2.47-1.27-3.05-3.11a27.46,27.46,0,0,1-.66-6.2c-.3-5.94.15-12-1-18.43-1.4-7.88-1.86-16.77-3.17-24.07-1.21-6.69-.87-13.11-1.94-20.48-.66-4.5-3.29-9.09-2.13-14.19.87-3.83,6-3.87,9.41-4.33,2.24-.3,6.73-.54,8.24,1.7,1.38,2-.25,5.95.06,8.24.07.53.3,2.11.3,2.18.13,1.3-1.32,1.81,1,2.14C207,20.89,206.12,20.13,207,20.26Zm-7.2,6c-.09-.8-.36.1-.45-.7,1.06,0,1.89.18,2,1.28-.92-.13-.85-.3-1.56-.58C199.82,26.13,200.54,26.53,199.84,26.26Zm4.9,4c3.07-.33,1,2.62,0,0C204.86,30.2,204.92,30.69,204.74,30.21Zm17-1.81q.53-.24.41.33l-1.07.49-.12-1.11c.76.14.31-.09.78.29C221.85,28.39,221.26,28,221.73,28.4ZM201.5,31.31c-.76-.14-.31.09-.78-.29C201.48,31.16,201,30.93,201.5,31.31Zm15.9,2a4,4,0,0,0-.25,1.15c-.94.1-.64-.89-.53-1.44l.78.29C217.26,34.1,217.14,33.25,217.4,33.34Zm-4,.8q.47.88-.29.78-.47-.88.29-.78C213.4,34.39,213.25,34.16,213.38,34.15Zm-7.52,3c-2,1.51-1.87.57-4,.8,0-.21,3.28-1.4,4-.8C205.33,37.58,205.39,36.81,205.86,37.19ZM216.57,36q-.13.57.41.33A3.67,3.67,0,0,1,215.66,38q.13-.57-.41-.33c0-1.33,0-1.49,1.32-1.63C216.58,36.17,216.2,36.09,216.57,36Zm-19.86,2.87c-.76-.14-.31.09-.78-.29C196.69,38.77,196.24,38.54,196.71,38.91Zm16-.22c-.09-.87.37,0,.74-.08q.27.88-1,.86c.14-.76-.09-.31.29-.78C212.73,38.57,212.37,39.16,212.74,38.7Zm-7.64,1.94c.37-.46,0-.16.7-.45.08.75.95,1-1,1.23.14-.76-.09-.31.29-.78Zm2.37,1.24a3.62,3.62,0,0,0,.21-1.52c.63.43,1,1.1,1.65,1.5S212,42.49,213,43c.27.13,2.06-.28,1.42.75a5.12,5.12,0,0,1-1.78.51c-1.87.09-2.75-2.22-5.14-2.39C207.64,41.29,209.19,42,207.48,41.87Zm14.77-1.58a.81.81,0,0,1-.82-.66q1.07-.49.82.66C222.13,40.31,222.22,40,222.25,40.29Zm-20.19,3.28c-.76-.14-.31.09-.78-.29C202,43.42,201.59,43.2,202.06,43.57Zm2.25.13c.46,0,.39-.16.7-.45l.08.74c-.76-.14-.31.09-.78-.29C204.44,43.69,204.78,44.08,204.31,43.7Zm5.33.92c0,1.92-3.55,3.74-5.18,3.91-.15-1.42,1.37-1.36,2.31-2.15,1.21-1,1.23-2.12,2.87-1.76C209.6,47.62,209.26,44.55,209.64,44.63Zm9.27-.62c.92,1-1.69,2.5-2.68,2.9-.22-2,.3-2.65,2.68-2.9C219.27,44.39,218.42,44.06,218.91,44Zm-20,5.12-1.85.2a1.5,1.5,0,0,1,2.1-1.34l-.25,1.15C198.3,49.2,199,48.75,198.92,49.14Zm8.32,1c.62.66.34,1,.2,1.85a1.59,1.59,0,0,0-1.52-.21q.24.53-.33.41l-.49-1.07c1.34-.14-1.41-.6,2.14-1C207.6,50.5,206.62,50.18,207.24,50.11Zm7.54.69c.13,1.18-1.72.18-2.22.24a3.62,3.62,0,0,0,.21-1.52l2,1.28C214.8,50.93,214.11,50.38,214.78,50.8Zm5.58-.22c-.31.52-.43,1.61-.91,2q-2.67,1.22-2-1.65l3-.32C220.09,51,219.38,50.68,220.36,50.58ZM209.52,54c-.27.45.06.05-.33.41q.13-.57-.41-.33c.51-1.23.36-1.53,1.69-1.67a1.74,1.74,0,0,1-.95,1.6C209.25,54.43,210.2,53.48,209.52,54Zm-2.66-.46c.19,1.74-1.74.19,0,0C206.88,53.76,206.61,53.54,206.86,53.52Zm10.21,1.15c-.8.09.1.36-.7.45q-.69-1.46.95-1.6l-.25,1.15C216.94,54.68,217.15,54.28,217.06,54.67ZM208.24,56q.57.13.33-.41c2.16-.26,2.78-.24,4.14.3-1,1.56-4.25,2.18-4.47.1C208.36,56,208.28,56.35,208.24,56Zm-2.84,1.42q.24.53-.33.41c-.06-.55-.42-.34-.82-.66a3.62,3.62,0,0,1,1.44-.53c-.14.76.09.31-.29.78C205.42,57.53,205.78,56.94,205.4,57.41Zm-4.64,2a1,1,0,0,1-.62,1.19q-.29-1.27.62-1.19C201.07,60.05,200.64,59.41,200.76,59.4Zm13.37-.68c.59,1.3.37.85.2,1.85-1.92-.51-1.9-.71-.2-1.85C214.3,59.07,213.51,59.13,214.13,58.71Zm5.54-.59c.63.67.08.72.16,1.48-1.59-.23-2.61-1.22-.16-1.48C220,58.5,219.18,58.17,219.67,58.12Zm-13.87,3q-.57-.13-.33.41s-1.44.1-.78-.29q.57.13.33-.41c.76.14.31-.09.78.29C205.68,61.11,205.33,60.72,205.8,61.1Zm17-1.81c.09.8-.38,0-.29.78-.9-.14-.7,0-1.19-.62l1.48-.16C222.8,59.41,222.29,59.34,222.78,59.28ZM210.84,62.8c2.94,3.12-4.69.5,0,0C211.2,63.18,210.47,62.84,210.84,62.8Zm6.51,1.54q.13-.57-.41-.33c-.14-1.33,1.18-.52,1.52.21l-1.11.12C217.34,64.22,217.72,64.31,217.35,64.35Zm-12.51,1.71c.37-1,3.2-1.55,3.32-.35-2.43.26-2,.44-3.53,1.87l-.53-1.44.74-.08C204.93,65.8,204.59,66.08,204.83,66.06ZM230,64.11c-.16.74-.34,1.53-.95,1.6q-1-2,.95-1.6C229.94,64.49,229.65,64.15,230,64.11Zm-9.48,2.13q.47.88-.29.78-.47-.88.29-.78C220.57,66.49,220.42,66.26,220.54,66.25ZM207.72,72.1q.47.88-.29.78-.47-.88.29-.78C207.75,72.34,207.6,72.11,207.72,72.1Zm-1.2,2.74c-.76-.14-.31.09-.78-.29C206.5,74.69,206.05,74.46,206.52,74.84Zm21.75-2.7q1.58-.92,1.52.21c-1.72.18.45.7-1.77.94l.25-1.15C228.76,72.09,228.18,72.53,228.27,72.14Zm-19.78,3.61a.66.66,0,0,1,.82.66q-1.07.49-.82-.66C208.61,75.74,208.51,76,208.48,75.75Zm21.65-.07c.46,0,.39-.16.7-.45l.08.74c-.76-.14-.31.09-.78-.29C230.26,75.66,230.6,76.05,230.14,75.68ZM206,83.86q.47.88-.29.78-.47-.88.29-.78C206,84.1,205.87,83.87,206,83.86Zm25.71-.51c-.76-.14-.31.09-.78-.29C231.69,83.21,231.24,83,231.7,83.35Z"/><path class="cls-4" d="M172.73,83.68c-3,.32.14-.88.19-1l1.12-.59a4.82,4.82,0,0,1-.75-1.83c0-1.51.56-3.08.49-4.12,0,.36-.7-1.23-.67-1-.05-.41-.06-2.16-.13-3-.19-2.11-2.17-5.37.89-5.7,0-.1-1.22-1.35-1.49-1.77a10.2,10.2,0,0,1-.79-2.1,21.63,21.63,0,0,1-.64-5c-.09-3.64-.92-5.94-1-9.61-.19-9.25-1.7-16-2.35-25.39-.15-2.15-.35-1.82,1.13-3.14A8.38,8.38,0,0,1,171.88,18a27,27,0,0,1,6.3-.36c.71,0,3.78-.38,4.3,0a11.81,11.81,0,0,1,.24,2.22c.88,2.18,1,6,1.31,8.8,1.18,11.06,2.47,22.1,3.78,33.15.53,4.48.34,9.25,1,13.42.37,2.31-.2,5.29-.13,7.48.08,2.68.16,4.91-.77,6.8-1.35,2.76-4.42,6.63-7.33,8.25a17.92,17.92,0,0,1-5.71,2.48,46.56,46.56,0,0,1-13.78.35c-4.18-.61-7.76-5.41-9.6-9.43-2.14-4.7-2.71-11.38-3.34-17.25C147.56,68.24,146.61,62.7,146,57c-.41-3.72-2.18-28.52-4.14-28.31-.52-1.29.24-5.19,1.1-6.32,1.26-1.65,4.95-2.18,6.9-2.15s5.68-.92,7.29.87c1.45,1.61.68,3.84,1,5.86a51.71,51.71,0,0,1,.74,5.15c0,3.54.88,7.36,1,10.73.07,2.77,1,5.09,1.2,8.09.3,3.85.39,7.6.92,11.85.09.75.54,3.22.68,4.6s-.41,3.13-.1,4.31c1.33-.14.15,2.37.32,3,1.06-.11.81,3.51.9,4a6.62,6.62,0,0,0,3,4.9c1.17.64,6,3.83,6,.11C172.36,83.72,172.72,84.79,172.73,83.68ZM175,31.52l0,.37c-.2,0-1.51.38-1.15-.25q.57.13.33-.41l.78.29C175,31.65,174.74,31.43,175,31.52Zm-17.49,4.11,0,.37c-.9-.14-.7,0-1.19-.62l1.15.25C157.53,35.75,157.13,35.55,157.52,35.63Zm-3.7,10.85c-.76-.14-.31.09-.78-.29C153.8,46.34,153.36,46.11,153.82,46.48Zm25,6.67c-.76-.14-.31.09-.78-.29C178.79,53,178.34,52.78,178.81,53.15ZM159.7,63c.46,0,.39-.16.7-.45.67.72.32,1.22-.58,1.56L159.7,63C159.82,63,159.74,63.4,159.7,63Zm15,.27c.19,1.74-1.74.19,0,0C174.69,63.55,174.42,63.33,174.66,63.3Zm-20.44,4.42c.58.62,0,.38.12,1.11-.71-.3-1.12-.33-1.6-.95l1.48-.16C154.58,68.11,153.73,67.78,154.22,67.73Zm25.21,1.79q.47.88-.29.78-.47-.88.29-.78C179.46,69.76,179.31,69.53,179.44,69.52Zm-24.19,7.81c-.76-.14-.31.09-.78-.29C155.23,77.18,154.78,77,155.25,77.33Zm7-.75c-.76-.14-.31.09-.78-.29C162.25,76.43,161.8,76.2,162.26,76.58Zm-4.35,1.21c.46,0,.39-.16.7-.45l.08.74c-.76-.14-.31.09-.78-.29C158,77.78,158.38,78.17,157.91,77.79Zm17.39-1.48c-.76-.14-.31.09-.78-.29C175.29,76.16,174.84,75.93,175.31,76.31ZM176.56,81c.18,1.73-2.63.28,0,0C176.58,81.27,176.19,81.07,176.56,81Zm7.42-.42c.14,1.34-1.33.75-1.85.2l1.85-.2C184,80.73,183.37,80.67,184,80.61Zm-27,5.5q.47.88-.29.78-.47-.88.29-.78C157,86.36,156.81,86.12,156.93,86.11Zm10.46,0s-.11.07-.82-.66C166.68,85.53,167.62,85.73,167.39,86.11Zm-6.74,3.33q.47.88-.29.78-.47-.88.29-.78C160.68,89.69,160.53,89.46,160.65,89.45Zm10.77,3a.66.66,0,0,1,.82.66q-1.07.49-.82-.66C171.55,92.39,171.45,92.65,171.42,92.41Z"/><path class="cls-5" d="M65.73,29.38c4.89-.56,10.16-.91,14.25.53a26.49,26.49,0,0,1,3.13,1.35,7.46,7.46,0,0,1,2.12,2.39l1.19.62a2,2,0,0,0-.21,1.52c1-.11,2.78,3.4,3.11,4.62a87.27,87.27,0,0,1,2.42,10.88c.94,6.73,2,13.33,2.76,20.09.39,3.67.63,7.72.81,11.06.11,1.94.51,5.2.42,7.42a37.48,37.48,0,0,1-1.66,9c-1.59,5.35-5.41,10.19-10.84,11.37-3.66.8-9.13,1.11-12.68.1a16.06,16.06,0,0,1-10.76-8.93c-1.32-2.71-2.92-5.49-3.57-9S55.47,84.68,54.8,81c-.63-3.52-.49-8.14-2-11.37.87-.09-.75-14.85-.78-16.42a39.2,39.2,0,0,1,.47-7.45A23.19,23.19,0,0,1,54,41.83c.79-2.2.75-4.51,2.65-6.63a12.11,12.11,0,0,1,4.12-3.43c1.09-.54,4-1.33,5-2.4C70.33,28.85,65.07,30.09,65.73,29.38Zm4.73,5.84c.19,1.74-1.74.19,0,0C70.48,35.47,70.21,35.25,70.46,35.22Zm-8.92,3.94c1.26,0,1.19-.13,1.6.95-1.72.18-2.72.45-1.6-.95C62.81,39.16,61.17,39.63,61.54,39.16ZM72.2,41c-.93.74-.21.77-1.77.94A1.08,1.08,0,0,1,72.2,41C71.75,41.36,71.73,40.63,72.2,41Zm-3.65.76a.81.81,0,0,1-.66.82l-.12-1.11.78.29C68.56,41.9,68.28,41.68,68.54,41.77Zm9,.16c-.05-.49.79-1.05,1.36-1.27q.75,1.79-1.36,1.27C77.51,41.81,78,41.88,77.52,41.93Zm5.41,1.66a.81.81,0,0,1-.82-.66q1.07-.49.82.66C82.81,43.61,82.9,43.35,82.93,43.6ZM80,65.57c.29.31.4.24.45.7-4.51.48-1.46,9.55-1,13.13.36,2.86,1.59,6.78,1.2,9.63-.32,2.34-2.49,3.54-1.22,6.11C75.7,95.53,74,94,72.68,91a20.6,20.6,0,0,1-2.09-9.11c2.2-.23-.67-2.17-.65-2.55,1-.11-.37-11.16-.81-11.12-.3-1,.25-3.08-.06-4.1-1.12.12.31-6.38-1.41-6.2a1.11,1.11,0,0,1,.66-.82Q69,55,67.75,55.3A17.73,17.73,0,0,1,68,50.42c.24-1.53.38-4.55,2.44-5.12,1.62-.44,4.37,1.46,5.12,2.44.9,1.18,1,9.6,2.13,9.48.67,1.44-.28,3.23-.25,4.69,0,1.78.53,2.19.45,4.25A5.82,5.82,0,0,0,80,65.57C80.41,65.95,79.44,65.87,80,65.57ZM66.84,46.81c.19,1.74-1.74.19,0,0C66.87,47.06,66.59,46.84,66.84,46.81Zm15.22-.88L82.55,47q-1.46.69-1.6-.95l1.11-.12C82.22,46.29,81.69,46,82.06,45.93Zm5.23,3.55c.19,1.74-1.74.19,0,0C87.32,49.73,87,49.51,87.29,49.48Zm-4.72,1.25q.47.88-.29.78-.47-.88.29-.78C82.6,51,82.45,50.75,82.57,50.73Zm-2.39,2.12,0,.37a2.51,2.51,0,0,1-2-1.28c1.07.16,1.13.55,2,.91C80.2,53,79.35,52.49,80.18,52.85Zm-20,1.76q.88-.27.86,1-1.25.51-.86-1C60.33,54.6,60.24,55,60.2,54.62Zm1.13,3.61-.37,0a3.41,3.41,0,0,1,1.69-1.67c.14,1.28-.65.66-1.32,1.63C61.21,58.24,61.71,57.68,61.34,58.23ZM84.6,55.74c.19,1.74-1.74.19,0,0C84.63,56,84.35,55.77,84.6,55.74ZM78,57.19a.66.66,0,0,1,.82.66q-1.07.49-.82-.66C78.16,57.18,78.06,57.44,78,57.19ZM59.44,61.42c.67-.07.78.82.9,1.4q-1.44.53-.9-1.4C59.56,61.41,59.49,61.91,59.44,61.42Zm29.31,1.72c.57-.06.46.6.86,1q-1.25.51-.86-1C88.87,63.13,88.79,63.51,88.75,63.14Zm-21,2.62c.19,1.74-1.74.19,0,0C67.77,66,67.5,65.79,67.74,65.76Zm-9.22,8.08c-.45,0-.49-.3-.82-.66q1.07-.49.82.66C58.4,73.85,58.5,73.59,58.52,73.84Zm22.81-3.18c.19,1.74-1.74.19,0,0C81.36,70.9,81.09,70.68,81.34,70.66Zm9.92,1.93c.29.31.4.24.45.7-2.2.24-2.74-.45-.45-.7C91.61,73,90.76,72.64,91.25,72.59ZM62,78.33c.19,1.74-1.74.19,0,0C62,78.57,61.74,78.35,62,78.33Zm6.07.85c-.29-.31-.4-.24-.45-.7,1.06,0,1.89.18,2,1.28-.92-.13-.85-.3-1.56-.58C67.7,78.79,68.76,79.45,68.06,79.17ZM65.3,81.33c.35.75-.52,1.18-1,1.23q0-1.28,1-1.23C65.61,82,65.18,81.35,65.3,81.33Zm2.62.09c.19,1.74-1.74.19,0,0C67.95,81.67,67.68,81.45,67.92,81.43ZM59.47,82.7c-.23,1.25-.83,1.56-1.48.16l1.48-.16C59.33,83.46,59,82.76,59.47,82.7ZM92.53,81c.19,1.74-1.74.19,0,0C92.56,81.29,92.28,81.07,92.53,81ZM58.35,86.18l.12,1.11c-.05.11-1.51-1-.12-1.11C58.39,86.55,58.23,86.2,58.35,86.18Zm27.07-1.77c.19,1.74-1.74.19,0,0C85.45,84.66,85.18,84.44,85.42,84.41ZM70.19,88.65a1.84,1.84,0,0,1-.62,1.19A3.62,3.62,0,0,1,69,88.4l1.15.25C70,89.41,69.81,88.57,70.19,88.65ZM87,88.73q.47.88-.29.78-.47-.88.29-.78C87,89,86.88,88.74,87,88.73ZM65.2,94.41a1.49,1.49,0,0,1,2-.22c1,1-1.8,2.35-2,.22C65.59,94.05,65.24,94.78,65.2,94.41Zm18.46-2c.12,1.13-.71,1-1.73,1.3-.12-1.13.71-1,1.73-1.3C83.69,92.69,83.06,92.63,83.67,92.44ZM70.4,97.59c.19,1.74-1.74.19,0,0C70.42,97.84,70.15,97.62,70.4,97.59Zm11.82-1.26c.19,1.74-1.74.19,0,0C82.24,96.58,82,96.36,82.21,96.33ZM79,98.16l-.25,1.15c-1.26,0-1.19.13-1.6-.95l1.85-.2C79,98.55,78.43,98.23,79,98.16Zm7.75-.83c.19,1.74-1.74.19,0,0C86.83,97.58,86.56,97.36,86.8,97.34Zm-9.73,3.28c.19,1.74-1.74.19,0,0C77.1,100.86,76.82,100.64,77.07,100.62Zm4,2.93c-.76-.14-.31.09-.78-.29C81.1,103.4,80.65,103.17,81.12,103.55Z"/><path class="cls-6" d="M97.44,25.62c4.23-.45,8.71-.92,13.33-1.05,1.9-.05,6.08-.67,8.16-.5,0,0,9.48,1.55,10.29,1.89,3,1.29,4.85,4.47,6,7.57,1.38,3.59,2,8.71,2.28,13.35a24.22,24.22,0,0,1-.82,8c-.45,1.58-2.81,4.44-2.52,6.06.24,1.31,3.44,3,4,4A21.63,21.63,0,0,1,140,69.06a56.89,56.89,0,0,1,3.08,11c.63,4.48.84,10.35-.45,14.62a13.08,13.08,0,0,1-4.44,6.54c-.42.31-4.42,2.29-4.38,2.71-.27.07-1-.5-1.89-.17.14,1.27-23.7,1.9-23.47,4-.91.36-4-.56-4.63-1.37-1.24-1.55-.29-6.83-.55-9-1-8.17-1.79-16.38-2.75-24.56-1-8.52-2-17-3-25.56C97,43,96.8,38.6,96.13,34.35a26.17,26.17,0,0,1-.57-4.67c0-2.33,1-2.24,1.88-4.06C98.67,25.48,97.1,26.31,97.44,25.62ZM112,29.29l.37,0c-.57,1.51-1.09.49-1.81.57-.41-.37.72-.26.66-.82.76.14.31-.09.78.29C112.15,29.27,111.56,28.91,112,29.29ZM104,38c-.76-.14-.31.09-.78-.29C104,37.84,103.53,37.61,104,38Zm10,13.12c-.15-1.42-.16-3.73-.7-4.78,0,.07-1.09-1.32-1.08-1.38,1-.11,1.24-4.38,1.95-5.61,1.23-2.15,5.71-4.2,7-1.32-1.67-.17-1.75-1.22-3.4-.38a18,18,0,0,1,4,5.55c.53,1.12,2.35,4.45,2.15,6.12-.43,0-2.08,4.91-2.79,5.69-1.54,1.69-2.38,1.38-4.58,2.19-1,.36-.22,2.91-2.49,1.2-.06,0-.34-.41-.43-.51a15.54,15.54,0,0,0,2.47-1.38c.31-.8-1.78-3.11-2-3.33-.46-.39-.87-.36-1.39-.79A1.58,1.58,0,0,0,114,51.11C113.81,49.51,113.93,51.3,114,51.11Zm-7.09-10.45c-.09-.8-.36.1-.45-.7,1.73-.19,2.24.51.45.7C106.88,40.54,107.26,40.63,106.89,40.67Zm17.55,0c-1.38.15-.9.13-1.56-.58a4.41,4.41,0,0,1,1.81-.57l-.25,1.15C124.07,40.7,124.53,40.28,124.44,40.66Zm1.91,3.9c-.45-.27-.05.06-.41-.33l1.07-.49.12,1.11c-.76-.14-.31.09-.78-.29S126.82,44.94,126.35,44.56ZM109.72,49.7q-.13.57.41.33a4,4,0,0,0-.25,1.15c-1.59-.23-2.61-1.22-.16-1.48C109.74,49.82,109.23,49.75,109.72,49.7Zm-3.5,2.24c.19,1.74-1.74.19,0,0C106.25,52.19,106,52,106.23,51.94Zm20.36,5.29c.19,1.74-1.74.19,0,0C126.61,57.48,126.34,57.26,126.59,57.23Zm-4,.8q.47.88-.29.78-.47-.88.29-.78C122.59,58.28,122.44,58.05,122.56,58Zm6.32-.3q-.53.24-.41-.33,1.42-.71,1.19.62c-.76-.14-.31.09-.78-.29C128.76,57.75,129.35,58.11,128.88,57.74ZM108.4,61.79c.29.31.4.24.45.7-2.63.28-3.67-.36-.45-.7C108.76,62.17,107.66,61.87,108.4,61.79Zm20.31-2.17c.17,1.62-4.89.52,0,0C128.74,59.87,128,59.7,128.71,59.62Zm-13,4.37q.72-.26.45.7-.92.25-1.23-1c.76.14.31-.09.78.29C115.85,64,115.27,63.62,115.73,64Zm-4.39.84q.27.88-1,.86-.51-1.25,1-.86C111.35,65,111,64.88,111.34,64.84Zm7.09,0c.55.59-.26,2-1.11.12l1.11-.12C118.79,65.21,118.07,64.87,118.43,64.83Zm4.38,2.52c-1.94.21-.81-1.51.54-1.93a3.35,3.35,0,0,1-.54,1.93C122.57,67.37,123.13,66.54,122.81,67.35Zm5.95-.26c-.46,0-.39.16-.7.45L128,66.8c.76.14.31-.09.78.29C128.64,67.1,128.29,66.71,128.76,67.09ZM114.4,69c.19,1.74-1.74.19,0,0C114.42,69.24,114.15,69,114.4,69Zm6,.11q.47.88-.29.78-.47-.88.29-.78C120.41,69.35,120.26,69.11,120.38,69.1Zm3.81.71c-.13-1.18,2-.58,2.18-.61-.37,1.71-1.19,1.41-2.18.61C124.18,69.69,124.66,70.19,124.2,69.81Zm-15.43,2.39c0-.46-.16-.39-.45-.7q1.36-1.27,1.56.58l-1.11.12C108.75,72.09,109.14,72.17,108.77,72.21Zm10-.33c.78-2.09,3.52-1.64,5.21-.18,1,.87,1.87,2.82,2.48,4a12.28,12.28,0,0,1,1.2,6c-.37,2.65-.32,2.27,1.54,3.94-2.41-.34-2.72,2.48-3.67,4.13a17.85,17.85,0,0,1-2.68,2.9c-3.37.28-4.13-3.76-6.79-4.13-.1-.91,1.53-1.52,1.71-2.62.3-1.8-.22-1-1.12-2.3,2.14-1.36-1.71-9.15.86-9.43.31-1.45-1-2.18-1.42-2.84,2-.21-.9.84,2.66.46C118.91,71.62,118.2,71.95,118.81,71.88Zm-5.21.18q.27.88-1,.86-.51-1.25,1-.86C113.62,72.19,113.24,72.11,113.61,72.07Zm14.62,4q.47.88-.29.78-.47-.88.29-.78C128.26,76.35,128.11,76.12,128.23,76.11Zm3-.32c.18,1.73-2.63.28,0,0C131.21,76,130.81,75.83,131.18,75.79Zm7.46-.05c-.76-.14-.31.09-.78-.29C138.63,75.59,138.18,75.36,138.65,75.74Zm-27.75,6c.28,2.63-1.73.18,0,0C110.94,82.06,110.65,81.72,110.9,81.69Zm-.85,6.07q.47.88-.29.78-.47-.88.29-.78C110.08,88,109.93,87.77,110.05,87.76Zm22.31-.89c.08.71-1,.72-1.15-.25l1.15.25C132.38,87,132,86.78,132.37,86.87Zm-18.23,4.19.12,1.11c-.1.21-.47-.32-.78-.29q-.06-.91.66-.82C114.18,91.42,114,91.07,114.14,91.05Zm13,2.72c-.27.45.06.05-.33.41,0-.46-.16-.39-.45-.7l1.07-.49c-.14.76.09.31-.29.78S127.5,93.31,127.13,93.78Zm-14.59,6.79c-.76-.14-.31.09-.78-.29C112.52,100.42,112.08,100.19,112.54,100.56Z"/></svg>